<mxfile host="app.diagrams.net" agent="Mozilla/5.0 (Windows NT 10.0; Win64; x64) AppleWebKit/537.36 (KHTML, like Gecko) Chrome/127.0.0.0 Safari/537.36" version="24.8.6">
  <diagram name="Page-1" id="XxHtfUKZ68LcEhgbas6Y">
    <mxGraphModel dx="1050" dy="522" grid="1" gridSize="10" guides="1" tooltips="1" connect="1" arrows="1" fold="1" page="1" pageScale="1" pageWidth="850" pageHeight="1100" math="0" shadow="0">
      <root>
        <mxCell id="0" />
        <mxCell id="1" parent="0" />
        <mxCell id="wCZGcdCFYKJnSCnD7NN1-4" value="" style="rounded=1;whiteSpace=wrap;html=1;" vertex="1" parent="1">
          <mxGeometry x="120" y="600" width="600" height="400" as="geometry" />
        </mxCell>
        <mxCell id="wCZGcdCFYKJnSCnD7NN1-1" value="User" style="shape=umlActor;verticalLabelPosition=bottom;verticalAlign=top;html=1;outlineConnect=0;" vertex="1" parent="1">
          <mxGeometry x="150" y="770" width="30" height="60" as="geometry" />
        </mxCell>
        <mxCell id="wCZGcdCFYKJnSCnD7NN1-2" value="Administrator" style="shape=umlActor;verticalLabelPosition=bottom;verticalAlign=top;html=1;outlineConnect=0;" vertex="1" parent="1">
          <mxGeometry x="650" y="770" width="30" height="60" as="geometry" />
        </mxCell>
        <mxCell id="wCZGcdCFYKJnSCnD7NN1-5" value="" style="rounded=1;whiteSpace=wrap;html=1;" vertex="1" parent="1">
          <mxGeometry x="250" y="610" width="350" height="380" as="geometry" />
        </mxCell>
        <mxCell id="wCZGcdCFYKJnSCnD7NN1-6" value="Autentikasi" style="ellipse;whiteSpace=wrap;html=1;" vertex="1" parent="1">
          <mxGeometry x="280" y="620" width="120" height="50" as="geometry" />
        </mxCell>
        <mxCell id="wCZGcdCFYKJnSCnD7NN1-7" value="Manajemen perangkat jarak jauh" style="ellipse;whiteSpace=wrap;html=1;" vertex="1" parent="1">
          <mxGeometry x="280" y="680" width="120" height="50" as="geometry" />
        </mxCell>
        <mxCell id="wCZGcdCFYKJnSCnD7NN1-8" value="Penerimaan notifikasi" style="ellipse;whiteSpace=wrap;html=1;" vertex="1" parent="1">
          <mxGeometry x="280" y="740" width="120" height="50" as="geometry" />
        </mxCell>
        <mxCell id="wCZGcdCFYKJnSCnD7NN1-9" value="Integrasi monitoring sensor" style="ellipse;whiteSpace=wrap;html=1;" vertex="1" parent="1">
          <mxGeometry x="280" y="800" width="120" height="50" as="geometry" />
        </mxCell>
        <mxCell id="wCZGcdCFYKJnSCnD7NN1-10" value="Integrasi AI terhadap perintah user" style="ellipse;whiteSpace=wrap;html=1;" vertex="1" parent="1">
          <mxGeometry x="280" y="860" width="120" height="50" as="geometry" />
        </mxCell>
        <mxCell id="wCZGcdCFYKJnSCnD7NN1-11" value="Otomatisasi" style="ellipse;whiteSpace=wrap;html=1;" vertex="1" parent="1">
          <mxGeometry x="280" y="920" width="120" height="50" as="geometry" />
        </mxCell>
        <mxCell id="wCZGcdCFYKJnSCnD7NN1-12" value="Pemeliharaan server" style="ellipse;whiteSpace=wrap;html=1;" vertex="1" parent="1">
          <mxGeometry x="440" y="710" width="120" height="50" as="geometry" />
        </mxCell>
        <mxCell id="wCZGcdCFYKJnSCnD7NN1-13" value="Manajemen data" style="ellipse;whiteSpace=wrap;html=1;" vertex="1" parent="1">
          <mxGeometry x="440" y="770" width="120" height="50" as="geometry" />
        </mxCell>
        <mxCell id="wCZGcdCFYKJnSCnD7NN1-14" value="Monitoring sistem" style="ellipse;whiteSpace=wrap;html=1;" vertex="1" parent="1">
          <mxGeometry x="440" y="830" width="120" height="50" as="geometry" />
        </mxCell>
        <mxCell id="wCZGcdCFYKJnSCnD7NN1-15" value="" style="endArrow=classic;html=1;rounded=0;entryX=0;entryY=0.5;entryDx=0;entryDy=0;" edge="1" parent="1" source="wCZGcdCFYKJnSCnD7NN1-1" target="wCZGcdCFYKJnSCnD7NN1-6">
          <mxGeometry width="50" height="50" relative="1" as="geometry">
            <mxPoint x="440" y="880" as="sourcePoint" />
            <mxPoint x="490" y="830" as="targetPoint" />
          </mxGeometry>
        </mxCell>
        <mxCell id="wCZGcdCFYKJnSCnD7NN1-16" value="" style="endArrow=classic;html=1;rounded=0;entryX=-0.01;entryY=0.712;entryDx=0;entryDy=0;entryPerimeter=0;" edge="1" parent="1" source="wCZGcdCFYKJnSCnD7NN1-1" target="wCZGcdCFYKJnSCnD7NN1-7">
          <mxGeometry width="50" height="50" relative="1" as="geometry">
            <mxPoint x="440" y="880" as="sourcePoint" />
            <mxPoint x="490" y="830" as="targetPoint" />
          </mxGeometry>
        </mxCell>
        <mxCell id="wCZGcdCFYKJnSCnD7NN1-17" value="" style="endArrow=classic;html=1;rounded=0;entryX=0;entryY=0.5;entryDx=0;entryDy=0;" edge="1" parent="1" source="wCZGcdCFYKJnSCnD7NN1-1" target="wCZGcdCFYKJnSCnD7NN1-8">
          <mxGeometry width="50" height="50" relative="1" as="geometry">
            <mxPoint x="440" y="880" as="sourcePoint" />
            <mxPoint x="490" y="830" as="targetPoint" />
          </mxGeometry>
        </mxCell>
        <mxCell id="wCZGcdCFYKJnSCnD7NN1-18" value="" style="endArrow=classic;html=1;rounded=0;entryX=0;entryY=0.5;entryDx=0;entryDy=0;" edge="1" parent="1" source="wCZGcdCFYKJnSCnD7NN1-1" target="wCZGcdCFYKJnSCnD7NN1-9">
          <mxGeometry width="50" height="50" relative="1" as="geometry">
            <mxPoint x="440" y="880" as="sourcePoint" />
            <mxPoint x="490" y="830" as="targetPoint" />
          </mxGeometry>
        </mxCell>
        <mxCell id="wCZGcdCFYKJnSCnD7NN1-19" value="" style="endArrow=classic;html=1;rounded=0;entryX=0;entryY=0.5;entryDx=0;entryDy=0;" edge="1" parent="1" source="wCZGcdCFYKJnSCnD7NN1-1" target="wCZGcdCFYKJnSCnD7NN1-10">
          <mxGeometry width="50" height="50" relative="1" as="geometry">
            <mxPoint x="440" y="880" as="sourcePoint" />
            <mxPoint x="490" y="830" as="targetPoint" />
          </mxGeometry>
        </mxCell>
        <mxCell id="wCZGcdCFYKJnSCnD7NN1-20" value="" style="endArrow=classic;html=1;rounded=0;entryX=0;entryY=0.5;entryDx=0;entryDy=0;" edge="1" parent="1" source="wCZGcdCFYKJnSCnD7NN1-1" target="wCZGcdCFYKJnSCnD7NN1-11">
          <mxGeometry width="50" height="50" relative="1" as="geometry">
            <mxPoint x="440" y="880" as="sourcePoint" />
            <mxPoint x="490" y="830" as="targetPoint" />
          </mxGeometry>
        </mxCell>
        <mxCell id="wCZGcdCFYKJnSCnD7NN1-21" value="" style="endArrow=classic;html=1;rounded=0;entryX=1;entryY=0.5;entryDx=0;entryDy=0;" edge="1" parent="1" source="wCZGcdCFYKJnSCnD7NN1-2" target="wCZGcdCFYKJnSCnD7NN1-12">
          <mxGeometry width="50" height="50" relative="1" as="geometry">
            <mxPoint x="440" y="880" as="sourcePoint" />
            <mxPoint x="490" y="830" as="targetPoint" />
          </mxGeometry>
        </mxCell>
        <mxCell id="wCZGcdCFYKJnSCnD7NN1-22" value="" style="endArrow=classic;html=1;rounded=0;entryX=1;entryY=0.5;entryDx=0;entryDy=0;" edge="1" parent="1" source="wCZGcdCFYKJnSCnD7NN1-2" target="wCZGcdCFYKJnSCnD7NN1-13">
          <mxGeometry width="50" height="50" relative="1" as="geometry">
            <mxPoint x="440" y="880" as="sourcePoint" />
            <mxPoint x="490" y="830" as="targetPoint" />
          </mxGeometry>
        </mxCell>
        <mxCell id="wCZGcdCFYKJnSCnD7NN1-23" value="" style="endArrow=classic;html=1;rounded=0;entryX=1;entryY=0.5;entryDx=0;entryDy=0;" edge="1" parent="1" target="wCZGcdCFYKJnSCnD7NN1-14">
          <mxGeometry width="50" height="50" relative="1" as="geometry">
            <mxPoint x="650" y="810" as="sourcePoint" />
            <mxPoint x="490" y="830" as="targetPoint" />
          </mxGeometry>
        </mxCell>
        <mxCell id="wCZGcdCFYKJnSCnD7NN1-24" value="Use case Smart Home" style="text;html=1;align=center;verticalAlign=middle;whiteSpace=wrap;rounded=0;" vertex="1" parent="1">
          <mxGeometry x="450" y="610" width="130" height="30" as="geometry" />
        </mxCell>
      </root>
    </mxGraphModel>
  </diagram>
</mxfile>
